<?xml version="1.0" encoding="UTF-8" standalone="no"?>
<svg
	 xmlns:dc="http://purl.org/dc/elements/1.1/"
	 xmlns:cc="http://creativecommons.org/ns#"
	 xmlns:rdf="http://www.w3.org/1999/02/22-rdf-syntax-ns#"
	 xmlns:svg="http://www.w3.org/2000/svg"
	 xmlns="http://www.w3.org/2000/svg"
	 xmlns:sodipodi="http://sodipodi.sourceforge.net/DTD/sodipodi-0.dtd"
	 xmlns:inkscape="http://www.inkscape.org/namespaces/inkscape"
	 height="250"
	 viewBox="0 0 227.38689 130.19704"
	 version="1.1"
	 id="svg14"
	 sodipodi:docname="xers-logo.svg"
	 style="fill:none"
	 inkscape:version="0.92.4 5da689c313, 2019-01-14">
	<metadata
		 id="metadata20">
		<rdf:RDF>
			<cc:Work
				 rdf:about="">
				<dc:format>image/svg+xml</dc:format>
				<dc:type
					 rdf:resource="http://purl.org/dc/dcmitype/StillImage" />
				<dc:title></dc:title>
			</cc:Work>
		</rdf:RDF>
	</metadata>
	<defs
		 id="defs18" />
	<sodipodi:namedview
		 pagecolor="#ffffff"
		 bordercolor="#666666"
		 borderopacity="1"
		 objecttolerance="10"
		 gridtolerance="10"
		 guidetolerance="10"
		 inkscape:pageopacity="0"
		 inkscape:pageshadow="2"
		 inkscape:window-width="1920"
		 inkscape:window-height="1010"
		 id="namedview16"
		 showgrid="false"
		 fit-margin-top="0"
		 fit-margin-left="0"
		 fit-margin-right="0"
		 fit-margin-bottom="0"
		 scale-x="0.1"
		 inkscape:zoom="0.2346863"
		 inkscape:cx="787.03512"
		 inkscape:cy="856.02331"
		 inkscape:window-x="0"
		 inkscape:window-y="0"
		 inkscape:window-maximized="1"
		 inkscape:current-layer="svg14" />
	<path
		 d="m 118.9099,6.4539867 c -3.403,-4.75096 -8.768,-7.12644995 -13.478,-6.28803995 -3.926,0.69867 -6.936,2.65494995 -9.9455,4.61123995 -3.2714,2.096 -6.5427,4.1921 -10.4684,4.1921 -6.5427,-1.9563 -14.394,-2.9345 -23.8156,-2.9345 -9.5524,0 -17.4037,0.9782 -23.9465,2.9345 0,0 1e-4,0 -0.1308,0 -4.0565,0 -7.3279,-2.0961 -10.5993,-4.1921 C 23.5162,2.8208967 20.5065,0.86461675 16.5808,0.16594675 11.7392,-0.67246325 6.505,1.7030267 3.1028,6.4539867 -0.03772001,10.785787 -0.82287001,15.816287 0.87824999,19.868587 2.31765,23.222187 4.54219,26.016887 6.7667,28.951387 c 3.0097,3.9125 6.0194,7.6854 5.3651,11.1788 -0.7851,4.0523 -1.3086,8.5238 -1.5703,13.5543 -0.4824,7.4694 1.9251,60.396803 2.7151,74.116803 0.0836,1.452 1.3426,2.503 2.7919,2.387 1.4407,-0.115 2.5224,-1.348 2.4355,-2.791 -0.8601,-14.267 -3.1942,-66.547203 -2.7083,-73.293603 1.9629,-31.9994 12.9547,-42.2 45.2759,-42.2 27.087,0 39.1253,7.2662 43.5743,28.3662 0,0.1397 0,0.2795 0,0.4192 0.786,3.9126 1.309,8.3841 1.702,13.4146 0.364,6.7464 -1.866,59.026603 -2.711,73.293603 -0.085,1.443 0.997,2.676 2.438,2.791 1.449,0.116 2.708,-0.935 2.792,-2.387 0.79,-13.72 3.197,-66.647403 2.715,-74.116803 -0.393,-5.31 -0.916,-10.0609 -1.832,-14.3927 -0.393,-3.3537 2.224,-6.5676 5.234,-10.4802 2.224,-2.7947 4.449,-5.5894 5.888,-8.943 1.963,-4.1921 1.178,-9.0828 -1.962,-13.4146003 z M 5.7199,17.493087 c -0.91599,-2.096 -0.26172,-5.0305 1.5703,-7.6854003 2.2245,-3.0742 5.4959,-4.751 8.3747,-4.1921 2.8788,0.559 5.4959,2.2358 8.113,3.9126 1.5702,0.9781003 3.2714,2.0960003 5.2342,3.0742003 -6.6736,3.9126 -22.1145,7.5457 -23.2922,4.8907 z m 110.572,0 c -1.177,2.655 -16.487,-1.1179 -23.1609,-4.8907 1.832,-0.8384 3.5329,-1.9563 5.1029,-2.9345003 2.748,-1.6768 5.235,-3.3536 8.114,-3.9125 2.878,-0.559 6.15,1.1178 8.374,4.192 1.963,2.5152003 2.486,5.4497003 1.57,7.5457003 z"
		 id="path2"
		 inkscape:connector-curvature="0"
		 style="fill:#2b303b" />
	<path
		 d="m 61.2024,100.35629 c 3.3494,0 11.777,-6.097003 11.777,-11.198303 0,-3.2349 -2.0529,-6.9676 -11.777,-6.9676 -9.7241,0 -11.7769,3.8571 -11.7769,6.9676 0.108,4.9769 8.4275,11.198303 11.7769,11.198303 z"
		 id="path4"
		 inkscape:connector-curvature="0"
		 style="fill:#2b303b" />
	<path
		 d="m 32.8069,44.042687 c -3.0097,0 -5.4959,2.655 -5.4959,5.8689 0,3.2139 2.4862,5.8689 5.4959,5.8689 3.0096,0 5.4959,-2.655 5.4959,-5.8689 0,-3.2139 -2.4863,-5.8689 -5.4959,-5.8689 z"
		 id="path6"
		 inkscape:connector-curvature="0"
		 style="fill:#2b303b" />
	<path
		 d="m 89.598,44.042687 c -3.0097,0 -5.496,2.655 -5.496,5.8689 0,3.2139 2.4863,5.8689 5.496,5.8689 3.0096,0 5.4959,-2.655 5.4959,-5.8689 0,-3.2139 -2.3554,-5.8689 -5.4959,-5.8689 z"
		 id="path8"
		 inkscape:connector-curvature="0"
		 style="fill:#2b303b" />
	<path
		 d="m 76.4331,95.229287 c 0,7.620003 -7.965,9.597003 -15.2771,9.597003 -7.3121,0 -15.2771,-1.977 -15.2771,-9.597003 v -23.7916 c 0,-1.4423 -1.1692,-2.6115 -2.6114,-2.6115 -1.4423,0 -2.6115,1.1692 -2.6115,2.6115 v 23.7916 c 0,8.694003 8.2261,14.597003 20.5,14.597003 12.2739,0 20.5,-5.903 20.5,-14.597003 v -23.7916 c 0,-1.4423 -1.1692,-2.6115 -2.6115,-2.6115 -1.4422,0 -2.6114,1.1692 -2.6114,2.6115 z"
		 id="path10"
		 inkscape:connector-curvature="0"
		 style="fill:#2b303b" />
	<path
		 d="m 134.8999,84.972187 h 0.172 c 1.147,0 1.863,0.9173 2.15,2.752 -1.433,5.7907 -2.15,10.2631 -2.15,13.416103 1.491,2.523 3.641,3.784 6.45,3.784 0.745,0.688 1.118,1.405 1.118,2.15 v 1.032 c -0.516,1.089 -1.663,1.634 -3.44,1.634 -1.605,-0.115 -3.153,-0.774 -4.644,-1.978 h -0.774 c -0.631,6.135 -1.462,9.202 -2.494,9.202 h -1.548 c -1.261,-0.688 -1.892,-1.491 -1.892,-2.408 l 1.634,-12.9 v -0.344 c -3.956,-7.281403 -5.934,-11.810803 -5.934,-13.588103 0,-1.376 0.975,-2.0927 2.924,-2.15 1.376,0 2.637,2.2073 3.784,6.622 l 0.344,0.344 h 0.516 c 0.573,-5.0453 1.835,-7.568 3.784,-7.568 z m 18.47,-6.02 c 2.293,0.0573 6.163,4.0707 11.61,12.04 l 0.172,1.462 c 0,1.6053 -3.927,2.8381 -11.782,3.6981 l -0.258,0.258 v 0.344 c 1.204,5.160003 2.465,7.740003 3.784,7.740003 h 1.032 c 1.835,0 4.615,-1.978 8.342,-5.934003 h 0.516 c 1.147,0 2.035,0.831 2.666,2.494003 0,1.376 -2.408,3.755 -7.224,7.138 -1.261,0.745 -2.781,1.29 -4.558,1.634 -4.644,0 -7.883,-4.357 -9.718,-13.072003 -2.637,-0.401 -3.956,-1.491 -3.956,-3.2681 0,-1.2613 0.975,-2.0927 2.924,-2.494 v 0.344 l 0.86,-0.344 v -2.15 c 0,-6.5933 1.863,-9.89 5.59,-9.89 z m 0.516,6.192 h -0.774 l -0.344,3.182 v 2.666 h 0.344 c 3.211,-0.1147 4.816,-0.4587 4.816,-1.032 -1.491,-2.236 -2.838,-3.8413 -4.042,-4.816 z m 30.223,-9.202 c 3.612,0 5.762,2.5227 6.45,7.568 v 0.774 c 0,5.5613 -2.867,10.6641 -8.6,15.3081 3.325,3.268003 9.145,4.902003 17.458,4.902003 1.261,0.401 1.892,1.29 1.892,2.666 0,1.548 -1.003,2.322 -3.01,2.322 -5.619,0 -11.524,-1.433 -17.716,-4.3 v 2.494 c 0,5.905 -1.261,8.858 -3.784,8.858 -1.777,0 -2.666,-3.411 -2.666,-10.234 v -6.708003 l -0.258,-2.408 0.602,-2.752 -0.602,-8.2561 v -0.344 c 0,-1.548 0.803,-2.6087 2.408,-3.182 2.236,-4.472 4.845,-6.708 7.826,-6.708 z m -4.3,18.8341 c 1.663,0 3.526,-2.9814 5.59,-8.9441 v -3.698 l -1.032,-1.118 h -0.774 c -2.523,1.72 -3.784,6.3067 -3.784,13.7601 z m 41.644,-19.7801 c 1.548,0 2.609,2.6087 3.182,7.826 -0.573,1.4333 -1.519,2.15 -2.838,2.15 -0.917,-0.172 -1.835,-1.2327 -2.752,-3.182 l -1.548,-0.516 c -2.695,0 -5.131,1.7773 -7.31,5.332 v 0.774 c 0,0.86 4.042,2.2933 12.126,4.3 3.383,2.0067 5.074,4.4431 5.074,7.3101 0,4.701003 -3.784,8.715003 -11.352,12.040003 l -3.182,0.516 c -4.816,-0.516 -7.224,-2.924 -7.224,-7.224 v -0.258 c 0,-1.376 0.889,-2.179 2.666,-2.408 1.376,0 2.293,1.433 2.752,4.3 l 0.688,0.516 h 1.462 c 3.268,0 6.307,-2.236 9.116,-6.708003 v -1.118 c 0,-1.72 -3.755,-3.325 -11.266,-4.8161 -3.956,-1.6053 -5.934,-3.8413 -5.934,-6.708 0,-3.7267 3.125,-7.224 9.374,-10.492 2.752,-0.344 5.074,-0.8887 6.966,-1.634 z"
		 id="path12"
		 inkscape:connector-curvature="0"
		 style="fill:#2b303b" />
</svg>
